<svg xmlns="http://www.w3.org/2000/svg" xmlns:xlink="http://www.w3.org/1999/xlink" width="400.167" height="390.234" viewBox="0 0 400.167 390.234">
  <defs>
    <linearGradient id="linear-gradient" x1="0.875" y1="0.18" x2="0.137" y2="0.839" gradientUnits="objectBoundingBox">
      <stop offset="0" stop-color="#e8bb87"/>
      <stop offset="1" stop-color="#9b7a53"/>
    </linearGradient>
  </defs>
  <g id="APR_Logo_Gradient_sq" data-name="APR Logo Gradient sq" transform="translate(-876.5 -287.499)">
    <g id="Group_1" data-name="Group 1" transform="translate(-5157.827 -3274.846)">
      <path id="Union_1" data-name="Union 1" d="M198.294,389.215c-23.058-.4-45.927-2.919-67.693-10.978-10.236-3.791-20.07-8.837-29.729-13.984-19.68-10.488-36.842-24.445-52.4-40.305-8.569-8.738-15.231-19.031-21.443-29.57A192.381,192.381,0,0,1,3.2,230.692,197.511,197.511,0,0,1,.423,182.315a194.883,194.883,0,0,1,7.956-44.06A190.2,190.2,0,0,1,41.906,73.967c16.627-20.792,36.249-38.126,59.979-50.395,20.891-10.8,42.927-18.415,66.384-21.261C177.618,1.177,187.054.749,196.45,0a246.412,246.412,0,0,1,42.268,5.2c20.085,4.093,38.954,11.31,57.08,20.665a165.53,165.53,0,0,1,38.253,26.815c6.215,5.888,12.514,11.74,18.22,18.107a182.64,182.64,0,0,1,30,46.729A188,188,0,0,1,398.2,178.029c2.725,28.174-.177,55.685-10.047,82.144-7.79,20.884-18.378,40.337-32.775,57.676-19.142,23.054-42.7,40.092-69.435,53.075a176.09,176.09,0,0,1-61.155,16.769c-8.105.754-16.261,1.541-24.386,1.541Q199.346,389.233,198.294,389.215ZM28.85,259.7c1.552,3.06,3.1,6.124,4.69,9.16,10.724,20.406,23.824,38.968,41.115,54.473a191.07,191.07,0,0,0,46.134,30.942c24.321,11.486,50.153,16.481,76.783,16.9,11.153.178,22.413-1.631,33.5-3.321,23.407-3.568,45.661-10.785,65.849-23.413,21.1-13.2,39.706-29.236,54.262-49.654,1.8-2.524,4-4.768,5.752-7.32,1.259-1.83,2-4.01,3.127-5.942,2.387-4.083,4.933-8.072,7.285-12.175a15.488,15.488,0,0,0,.972-3.655c-2.359,0-4.257.06-6.152-.012-5.935-.224-11.778-.958-17.2-3.61-7.821-3.826-13.449-9.913-17.609-17.422-5.39-9.73-10.271-19.767-17.124-28.609a36.919,36.919,0,0,0-4.784-4.849c-.556-.493-1.929-.91-2.274-.61a3.564,3.564,0,0,0-.9,2.472c.016,10.206.043,20.413.233,30.618a73.753,73.753,0,0,0,1,8.5c.474,3.483,2.279,5.693,5.886,6.43,1.8.37,3.6,1.111,4.271,3.642l-44.384,2.665c-.171-.231-.342-.461-.514-.691,1.979-2.482,3.591-5.446,6.041-7.309,2.489-1.892,5.8-2.7,8.757-3.977q-.053-.188-.107-.375l-26.026,5.721c2.962-2.268,5.477-4.178,7.97-6.115.943-.732,2.335-1.368,2.651-2.333.861-2.632,3.074-3.424,5.079-4.66.982-.605,2.317-1.59,2.413-2.517.492-4.714.631-9.464.895-14.2a11.093,11.093,0,0,0-1.908,3.05c-3.315,7.1-6.858,14.114-12.218,19.91-4.921,5.324-8.4,11.505-11.841,17.781-1.727,3.149-3.85,6.081-5.8,9.11h0q.04.493.079.982c3.852-4.094,8.242-7.291,13.869-8.523,11.964-2.617,21.946,1,30.358,9.583,1.325,1.353,2.549,2.8,4.3,4.736l16.916-20.966c.5,3.847-9.817,26.97-12.806,29.792l7.144-16.965-.808-.582a44.551,44.551,0,0,0-3.547,3.339c-.988,1.141-1.688,2.526-2.577,3.759-1.663,2.305-2.731,5.519-6.648,4.525l-.117-.124c-.634-.657-1.148-1.609-1.922-1.929-12.784-5.293-25.861-7.6-39.515-3.659a12.072,12.072,0,0,0-7.835,6.22c-3.163,6.391-5.992,12.947-9.072,19.38-1.247,2.6-2.792,5.063-4.2,7.589l-.7-.357c.843-2.06,1.6-4.158,2.543-6.175,3.251-6.975,6.589-13.909,9.82-20.894a12.114,12.114,0,0,0,.554-2.969c.194-3.319.622-6.647.495-9.954a17.31,17.31,0,0,0-1.574-6.281c-3.427-7.587-7.4-14.868-13.764-20.478a37.463,37.463,0,0,0-5.959-4.117c4.5,4.5,10.154,7.953,12.442,14.377-3.637-1.512-7.035-2.714-10.238-4.311a8.441,8.441,0,0,1-3.657-10.6c.667-1.482,1.431-1.955,3.1-1.251,12.844,5.435,22.146,15.489,22.18,32.823a9.936,9.936,0,0,0,.885,2.813c.944-2.288,2.053-4.523,2.8-6.874,3.4-10.7,6.48-21.516,10.147-32.124a75.954,75.954,0,0,1,6.962-14.328,14.75,14.75,0,0,0,2.51-7.061c.322-5.7.857-11.39,1.254-17.087q1.387-19.942,2.735-39.885c.067-.975.239-1.944.361-2.916l1.065-.183c.335,1.2,1,2.415.951,3.6q-.4,9.7-1.1,19.384c-.647,8.831-1.454,17.651-2.122,26.48-.283,3.747-.389,7.509-.594,11.632,3.957-2.277,7.208-4.185,6.63-9.436-.517-4.71,0-9.528-.062-14.295-.145-10.482-.227-20.97-.642-31.443-.16-4.014-1.7-7.642-5.876-9.406-.488-.206-1.279-.8-1.219-1.035.78-3.078-1.8-4.652-2.992-6.8a27.6,27.6,0,0,0-11.7-10.99,79.257,79.257,0,0,0-14.584-5.8c-4.548-1.308-9.37-1.661-14.071-2.436,4.044,1.533,8.178,2.468,12.239,3.653a38.591,38.591,0,0,1,21.95,15.981c3.972,5.943,5.657,12.629,6.638,19.591,1.819,12.915-2.753,23.418-12.226,31.91-7.72,6.921-17.445,8.893-27.32,9.47-7.868.46-15.8-.2-23.709-.37-1.629-.035-3.081.009-3.1,2.282-.091,13.257.077,26.494,2.409,39.6.556,3.133,1.871,5.905,4.627,7.589,2.9,1.775,6.033,3.181,9.018,4.831.688.38,1.614,1.068,1.653,1.664.035.544-.89,1.484-1.558,1.677a23.421,23.421,0,0,1-6.126,1.226c-11.875.109-23.753.189-35.625,0-11.235-.175-22.466-.681-33.7-1.072a27.154,27.154,0,0,1-3.1-.474c.981-2.868,3.414-2.719,5.228-3.424,4.2-1.633,5.4-3.473,4.518-7.872-.706-3.547-1.626-7.051-2.435-10.578-.144-.631-.208-1.28-.309-1.922l.5-.095q.81,2.433,1.62,4.866a.978.978,0,0,0,.283-.931c-2.852-9.894-5.682-19.793-8.6-29.668-.764-2.59-3.649-3.806-6.77-3.079l3.191,1.041a20.4,20.4,0,0,1-3.88.063c-.822-.04-1.634-.081-2.444-.052-9.9.347-19.8.8-29.695,1.246-1.948.087-3.585.449-3.1,3.161.167.93-.445,2.018-.761,3.015-2.764,8.721-5.7,17.392-8.219,26.183a17.151,17.151,0,0,0-.456,8.609c1.416,5.442,12.187,10.174,18.7,8.568a54.444,54.444,0,0,1,3.428-24.6c3.08-7.993,7.3-15.332,13.863-21.126a29.531,29.531,0,0,1-1.7,6.1c-2.881,7.464-6.191,14.788-8.62,22.394a69.438,69.438,0,0,0-3.186,26.467c1.638-7.962,6.147-14.075,12.163-19.163,2.636-2.23,5.412-4.421,9.48-3.831a17.126,17.126,0,0,1-.516,2.423c-2.652,6.991-5.826,13.671-11.051,19.2a26.278,26.278,0,0,0-3.757,5.029,36.967,36.967,0,0,0-4.906,18.488l1.1-.163c-.373,2.319-1.163,4.586-.988,6.775a31.237,31.237,0,0,0,1.934,8.889c6.55,16.571,18.361,28.049,34.758,34.761,4.061,1.663,8.439,2.555,12.671,3.8a17.972,17.972,0,0,0-1.82-5.576q-4.6-9.5-9.243-18.986l2.155,6.679c-1.2-1.588-2.1-2.785-3.014-3.977-2.82-3.7-5.55-7.463-8.522-11.031-.826-.994-2.374-1.382-3.576-2.075a8.318,8.318,0,0,1-1.4-.961c-3.468-3.1-6.881-6.271-10.4-9.311-.878-.758-2.3-.92-3.1-1.723a21.979,21.979,0,0,1-2.484-3.637l.885-.963,15.069,9.674c-.064.086-.126.172-.189.258l-.647.69,7.451,5.207-6.8-5.895c.062-.087.125-.173.189-.259,5.005,1.82,9.458,4.415,12.735,8.778a8.318,8.318,0,0,0,2.181,1.546c.252,1.668.14,3.576.841,5.113,3.633,7.975,7.531,15.828,11.205,23.784,1.073,2.322,2.611,3.078,5.113,3.194,10.315.482,20.2-2.27,30.288-3.549a177.921,177.921,0,0,1,24.43-1.257c4.127.051,8.327-.017,12.571,1.626,4.491,1.739,9.662,1.869,14.571,2.323,2.985.276,6.036-.164,9.058-.282l6.086-.462.081,0-.08,0c-4.25-.532-8.5-1.078-12.759-1.551-.208-.023-.488.589-.734.905-1.606-.159-3.227-.225-4.814-.494-8.228-1.4-16.445-2.841-24.647-4.266.8-3.344,2.356-4.452,6.55-3.78,4.506.72,8.964,1.746,13.445,2.62,1.595.312,3.4,1.59,4.631-.876.048.446.095.89.219,2.063,2.256-7.617,4.322-14.594,6.389-21.571l.866.239c-1.062,3.851-2.117,7.7-3.189,11.551-.691,2.479-1.342,4.97-2.13,7.416-.655,2.035.051,3.086,2.08,3.416,4.881.794,9.761,1.6,14.645,2.383,1.368.219,2.747.378,4.12.565l.08.817q-1.082.323-2.162.647l-1.191-.038,1.191.04c-4.64,1-9.27,2.055-13.922,3-8.5,1.723-16.94,2.334-25.4-.573-9.988-3.43-20.263-3.093-30.539-1.546-10.04,1.511-19.9,3.827-30.275,3.182a60.586,60.586,0,0,1-29.318-9.346c-8.856-5.605-15.365-13.467-21.462-21.9-5.737-7.931-7.06-16.594-6.85-25.976.127-5.681-.453-11.386-.876-17.068-.323-4.328-.9-8.637-1.312-12.455-2.015.375-4.491,1.2-6.975,1.224-4.85.051-9.7-.366-14.557-.547-10.473-.389-20.947-.732-31.418-1.146a45.1,45.1,0,0,1-4.514-.625q-.049-.523-.1-1.046c3.9-1.451,7.736-3.1,11.714-4.282a8.8,8.8,0,0,0,5.67-4.4,53.189,53.189,0,0,0,2.862-5.594c3.748-9.581,7.507-19.161,11.054-28.817,5.224-14.218,10.227-28.517,15.408-42.751,4.823-13.254,9.774-26.462,14.627-39.706a37.635,37.635,0,0,0,2.433-7.879c.315-2.447,1.337-3.028,3.485-2.978,8.861.206,17.723.427,26.585.472,3.515.017,6.69,1.059,8.493,3.881,2.526,3.957,5.1,8.16,6.3,12.622a86.618,86.618,0,0,1,2.794,18.884c.279,6.965.573,14.154-3.344,20.559a2.974,2.974,0,0,0-.06,2.174c3.841,11.881,7.689,23.762,11.64,35.607,1.281,3.841,2.86,7.582,4.3,11.369.478-2.185.091-4.227.175-6.248.222-5.306.887-10.6.95-15.9.161-13.626.231-27.255.064-40.88-.112-9.128-.835-18.246-1-27.375-.079-4.39-1.461-7.574-5.747-9.118a16.248,16.248,0,0,1-2.673-.9,41.8,41.8,0,0,1-3.471-2.475c1.043-.909,1.581-1.1,2.122-1.111,7.717-.15,15.433-.328,23.15-.372,2.125-.012,2.977-.652,3.181-2.914.419-4.645,1.1-9.28,1.945-13.868a8.277,8.277,0,0,0-1.718-7.224c-7.271-8.785-16.4-13.11-27.951-11.451-3.208.46-6.388,1.114-9.595,1.585-3.855.566-7.764,1.508-11.427-.762-2.035-1.261-3.828-2.728-4.082-6.047l12.552,4.038L130.895,80.642c-1.819,1.525-3.167,3.178-4.906,3.934a5.488,5.488,0,0,1-4.374-.468,4.208,4.208,0,0,1-1.682-3.488c.13-.812,2.061-1.282,3.107-2.019a16.8,16.8,0,0,0,1.894-1.8l-.395-.645c-2.095,1.437-4.41,1.894-5.6-.493-.644-1.292-.489-4.1.427-4.842,2.668-2.158,4.27.92,5.939,2.032l3.232-1.654c.464,1.109.99,2.2,1.366,3.333.2.618-.025,1.412.258,1.964a7.02,7.02,0,0,0,1.974,2.813c4.268,2.689,8.656,5.19,13.007,7.748,3.1,1.821,6.337,3.111,10.041,2.637,6.2-.793,12.383-1.468,18.224.965-2.413-2.951-4.822-5.905-7.257-8.837a71.332,71.332,0,0,0-19.727-16.4c-1.648-.942-2.987-1.321-4.442.563l5.263,1.25q-3.85,2.685-7.672,5.349c-1.894,1.323-3.222.253-4.454-1.078-1.355-1.461-.887-2.811.439-3.954.979-.843,2.073-1.553,3.27-2.437a35.991,35.991,0,0,1-2.856-2.739c-2.076-2.488-1.609-5.162,1.183-7.452,2.517-2.065,3.791.125,5.15,1.595a17.963,17.963,0,0,1,1.479,2.683,9.551,9.551,0,0,0,2,2.643c2.853,2.129,5.825,4.1,8.772,6.107.773.525,1.619.946,2.43,1.415-1.337-6.957-2.521-13.383-2.156-20.02a6.667,6.667,0,0,1,1.416,3.109c.879,4.684,1.435,9.449,2.632,14.047.819,3.149,1.852,6.65,3.925,8.983,5.24,5.9,11.108,11.238,16.753,16.772,1.915,1.878,3.916,3.668,6.488,6.068-1.536-3.509-2.695-6.212-3.9-8.893-3.044-6.764-6.173-13.491-9.1-20.305a4.865,4.865,0,0,1,.217-3.587c.15-.319,1.083-.283,1.977-.246.346.014.686.028.973.022a5.561,5.561,0,0,1,.851.073,2.358,2.358,0,0,0,1.418-.064c1.922-1.106,2.867,0,3.113,1.509A40.524,40.524,0,0,1,181.665,73c2.284,1.006,4.287,3.138,3.723,6.343-.243,1.379-1.978,2.493-3.4,4.152,2.8,6.416,4.489,14.113,9.746,21.068.269-2.244.371-3.822.66-5.363.906-4.853,1.533-9.794,2.918-14.512,1.814-6.182,4.245-12.184,6.415-18.262.644-1.8.086-3.038-1.52-4.111a75.375,75.375,0,0,1-6.863-5.131c-1.889-1.6-3.553-3.469-5.317-5.219l.582-.63c4.789,2.07,8.669,5.4,12.386,9.073a80,80,0,0,0-8.8-9.514c-3.775-3.463-7.924-6.532-11.548-10.138-1.083-1.078-1.811-3.958-1.137-4.969.742-1.111,3.361-1.57,5.034-1.347a15.546,15.546,0,0,1,12.2,8.026c2.222,4.054,4.174,8.256,6.379,12.658.233-3.772.037-7.433.789-10.889.768-3.531,2.395-6.891,3.852-10.236.171-.395,2.343-.464,2.408-.274.553,1.592,1.435,3.434,1.06,4.9-.7,2.747-3.095,3.286-5.782,2.467-.394,6.124-.774,12.025-1.186,18.431,2.247-4.6,4.408-8.7,6.266-12.946.924-2.11,1.2-4.493,1.945-6.693.38-1.125,1.127-2.982,1.743-3a6.444,6.444,0,0,1,4.223,1.487c.567.527.319,2.578-.251,3.531-.857,1.431-2.348,2.471-3.516,3.728a39.52,39.52,0,0,0-8.493,14.108C210.916,51.41,216.613,44.065,226.043,40c-1.7-1.917-1.966-3.757.25-5.154a14.531,14.531,0,0,1,3.843-1.814c3.3-.892,5.431,1.308,4.619,4.612a5.894,5.894,0,0,1-7.068,4.243,3.651,3.651,0,0,0-2.845.549c-3.685,3.123-7.628,6.07-10.74,9.711-6.486,7.588-11.473,16.083-12.794,26.39,2.6-2.834,5.091-5.77,7.424-8.825,3.717-4.866,7.892-9.195,14.087-10.577,1.734-.387,3.767.56,5.663.895a23.456,23.456,0,0,1-2.244,4.48c-6.17,7.707-14.127,12.923-23.272,16.5a5.391,5.391,0,0,0-3.028,2.937q-5.205,19.923-9.973,39.958c-.294,1.23.046,3.394.882,3.961,2.348,1.595,6.408.931,7.511-.814,2.5-3.948,4.914-7.946,7.366-11.921,4.149-6.727,7.931-13.722,12.58-20.083,3.076-4.206,6.988-8.46,13.3-7.016a59.018,59.018,0,0,1,7.482,2.738c.97.367,1.924.772,2.885,1.16.094-.285.189-.57.282-.855-5.032-1.569-9.239-5.443-15.139-4.7-1.341.17-2.817-.738-4.231-1.15q.1-.547.2-1.092c4.67-1.921,9.588-1.683,14.336-.424,4.661,1.237,9.128,3.2,13.681,4.846.044-.093.088-.187.133-.28l-10.9-4.869.577-.718c18.919,1.6,26.807,15.52,33.309,31.37.307-.719.5-.958.491-1.189a7.206,7.206,0,0,0-.227-1.978c-1.774-5.311-3.41-10.679-5.444-15.89-2.8-7.183-.267-16.592,5.848-21.36a8.223,8.223,0,0,0,2.476-3.857c1.038-3.262,1.656-6.656,2.608-9.95.511-1.769,1.361-3.443,2.381-5.954a34.3,34.3,0,0,1,1.587,3.107c1.441,3.95.161,7.72-.923,11.464S280.163,75.8,279.623,79.6c-1.3,9.11-2.048,18.3-2.983,27.117-.129.175.033.043.077-.121.149-.551.26-1.111.38-1.67,1.915-9,5.378-17.3,11.237-24.465,1.9-2.319,3.075-4.651,2.8-7.763-.19-2.129,1.506-3.066,3.539-2.6a4.237,4.237,0,0,0,2.658-.569,3.033,3.033,0,0,1,4.26,1.02c1.446,1.891,1.035,3.825-.406,5.48-1.5,1.725-2.46.059-3.524-.772-.246-.192-.587-.26-.218-.105,0,1.464.466,3.218-.112,4.506-.817,1.822-2.667,1.663-4.508,1.1-.593-.181-1.71.512-2.241,1.112a52.9,52.9,0,0,0-12.248,22.672c-.77,3.162-1.508,6.33-2.246,9.433,5.843-5.616,11.335-11.286,17.272-16.443,3.166-2.75,5.813-6.938,10.386-6.164-.41-.96-1.586-2.626-1.221-3.1.712-.917,2.284-1.165,3.5-1.691.9-.275,2.258-1.5,2.366-1.4a31.8,31.8,0,0,1,4.229,4.678c.386.542-.048,1.671-.124,2.53-.006.062-.177.094-.22.168a29.025,29.025,0,0,1-1.849,3.182c-.967,1.27-2.119,2.4-3.192,3.586-.918-.913-2.188-1.668-2.689-2.772-1.414-3.109-2.115-3.464-5.132-1.69a12.537,12.537,0,0,0-2.273,1.718c-4.484,4.275-8.683,8.892-13.464,12.8-6.3,5.154-7.988,11.771-8.21,19.452-.181,6.255-1.254,12.485-1.926,18.727-.076.7-.122,1.4-.192,2.221,5.277-.857,10.245-1.647,15.2-2.492a2.291,2.291,0,0,0,1.475-.784c2.806-4.715,6.668-8.992,7.014-14.8a118.237,118.237,0,0,0-.023-12.3,3.066,3.066,0,0,0-1.879-2.16,7.657,7.657,0,0,1-5.4-4.675c-.925-2.1-.249-3.146,2.333-2.7l-2.721-2.549c2.78-1.523,4.356-.255,5.242,1.425l2.933-2.782,2.916,4.478c.463,0,1.972-.412,2.409.1a4.507,4.507,0,0,1,.744,3.311c-.416,2.513-2.384,3.183-4.444,2.992V132c1.895-3.129,3.246-6.471,4.856-9.684,1.27-2.535,2.453-5.311,4.393-7.27,3.576-3.611,7.909-6.507,9.615-11.7-2.085,7.636-6.693,13.962-10.431,20.72,6.363-7.543,11.292-15.749,12.5-25.8a40.1,40.1,0,0,1,1.909-7.449c.316-.978,1.2-1.774,2.206-3.187.775,1.54,1.646,2.491,1.67,3.462.079,3.192.53,6.6-.386,9.548A60.349,60.349,0,0,1,310.9,124.617c-.732.763-1.479,1.513-2.218,2.267l.678,1.03c6.479-5.108,13.194-9.7,21.452-11.072a50.355,50.355,0,0,1,24.079,1.322,13.547,13.547,0,0,1-2.556-.1,10.625,10.625,0,0,0-2.977-.027,56.89,56.89,0,0,0-11.807,3.062c-7.471,3.17-14.843,6.413-22.91,7.917a29.956,29.956,0,0,0-14.268,6.934c-3.269,2.846-6.352,5.868-7.294,10.335,3.453,0,6.7.23,9.912-.044a74.781,74.781,0,0,1,26.064,2.254c11.537,3.126,19.338,12.324,20.32,23.291,1.09,12.163-4.722,22.494-15.746,28.048-1.33.669-2.6,1.459-3.544,1.994l17.488,32.726c.22-.468.373-.634.354-.773-1.689-11.743,1.661-21.77,9.882-30.355,4.937-5.156,9.773-10.473,12.465-17.289,1.085-2.748,2.181-5.491,3.58-9.011a49.35,49.35,0,0,1-.028,5.679c-2.605,19.516-8.48,38.147-15.953,56.257-1.9,4.6-2.294,8.075,1.912,11.112,3.288,2.376,6.667,4.64,10.141,6.729a2.843,2.843,0,0,0,2.637-.9,108.576,108.576,0,0,0,4.208-11,160.513,160.513,0,0,0,7.185-42.175,234.653,234.653,0,0,0-1.088-28.826c-1.489-17.162-6.373-33.438-13.727-49.028a184.233,184.233,0,0,0-31.827-47.258,210.207,210.207,0,0,0-31.059-27.359,173.768,173.768,0,0,0-42.4-22.884c-23.148-8.4-47.035-12.892-71.762-11.4-9.777.591-19.559,1.567-29.251,2.972a135.325,135.325,0,0,0-34.608,9.661c-4.433,1.926-8.7,4.251-13.009,6.447a191.285,191.285,0,0,0-45.271,31.71,162.542,162.542,0,0,0-31.943,42.932c-1,1.9-1.832,3.554-4.492,2.739-.558-.171-1.4.6-2.115.932q.059.631.116,1.264c10.425-1.026,20.826-2.065,30.3,3.622,9.092,5.46,16.334,12.443,20.042,22.484l-.763.716-6-5.9c-.146-.59-.1-1.356-.468-1.741-1.957-2.078-3.958-4.124-6.048-6.068a36.792,36.792,0,0,0-27.448-10.306,33.531,33.531,0,0,1,17.037,4.72c6.263,3.643,12.172,7.751,16.88,13.366-3.568-2.666-7.271-5.171-10.679-8.029-9.657-8.1-21.175-8.513-32.675-8.658-7.778,22.474-14.2,44.826-14.4,68.889l1.471,1.033c.016-.319.032-.637.048-.955a22.706,22.706,0,0,1,4.372-.107c13.589,2.254,36.077,17.787,39.041,26.822-16.055-6.923-33.032-12.29-45.636-25.678.039,6.622-.121,12.956.843,19.114,2,12.789,4.593,25.486,6.971,38.215.338,1.8,1.318,2.155,3.141,1.566a59.651,59.651,0,0,1,8.854-2.141c4.243-.679,11.189,1.9,13.291,4.665-3.163-.289-6.309-.618-9.461-.853-2.467-.184-4.943-.251-7.415-.371q-.007.445-.015.89c.927,0,1.855.042,2.779-.006a23.66,23.66,0,0,1,15.378,4.379c1.537,1.1,2.458,3.063,3.662,4.632-7.542-3.7-15.588-3.675-23.766-3.652-2.932.008-5.881.016-8.83-.147.872.391,1.55.969,2.192.933.1-.006.206-.009.305-.009C26.916,256.163,27.911,257.85,28.85,259.7Zm195.529,86.855,18.109,4.537.14-.613-18.158-4.532Q224.425,346.252,224.379,346.556Zm16.142-61.486,4.244-5.78ZM108.552,282c1.009-4.55,2-9.015,2.988-13.482l-.723-.128C110.311,272.987,106.942,277.03,108.552,282Zm1.332-1.089.641.312q2.659-5.359,5.319-10.719l-.684-.335Zm134.544-2.813.038.035-.038-.036Zm24.8-3.562,8.506,2.831.213-.61-8.56-2.737Zm-16.4.95.156.553,9.768-2.751-.145-.518Zm100.333-34.053c-1.307-5.94,4.151-9.323,4.966-14.641.771-5.03,3.89-9.7,5.977-14.53l-.728-.321c-3.581,8.045-7.163,16.089-10.913,24.513l-.457-1.724C352.431,236.928,350.269,239.521,353.163,241.428Zm-89.583-1.607.525.235L267.8,231.9l-.528-.32Q265.427,235.7,263.581,239.821Zm.7-10.233,9.784-10.762C270.628,220.313,265.015,226.626,264.283,229.588ZM117.377,144.529c-.38,1.446-.694,2.913-1.15,4.335q-8.383,26.121-16.8,52.23c-1.107,3.438-.835,3.831,2.74,3.751,4.372-.1,8.743-.289,13.114-.309,1.829-.008,3.661.048,5.493.1,3.029.093,6.057.187,9.067-.011,6.114-.4,6.163-.663,4.419-6.6-2.172-7.393-4.56-14.723-6.681-22.13-2.541-8.875-4.861-17.813-7.372-26.7a36.583,36.583,0,0,0-2.1-4.789ZM301.944,156.97c.311,6.081.45,12.174.5,18.263.079,8.953.054,17.907,0,26.861-.013,2.192.737,3.023,2.916,2.288,2.341-.79,4.887-1.187,7.011-2.357,4.1-2.261,8.359-4.5,10.545-9.055l.094-.118c.882-1.978,2.38-3.913,2.525-5.945.159-2.231.319-4.49.377-6.744-.608,3.058-1.209,6.118-1.858,9.167-.254,1.195-.692,2.35-1.045,3.523l-.093.117-.818.381,3.659-15.106.178.023a41.519,41.519,0,0,0-.461-6.365c-1.623-10.266-9.569-17.009-19.887-17.771-.383-.028-.756-.052-1.109-.052C302.959,154.081,301.819,154.525,301.944,156.97ZM34.985,198.177q5.723,2.707,11.461,5.381l.253-.587-11.634-5.354A2.145,2.145,0,0,0,34.985,198.177Zm175.959.429a30.15,30.15,0,0,0,4.736-.145c9.335-1.28,17.2-5.337,20.563-14.531,1.732-4.738,1.4-10.238,1.937-15.4a34.984,34.984,0,0,0,.019-3.63l.489.054q.179.754.356,1.506l.8-.19c-1.184-4.769-1.494-10.014-3.77-14.188a29.362,29.362,0,0,0-13.009-11.924c-7-3.458-14.478-4.517-22.194-4.449-3.587.032-3.826.086-3.712,3.647.295,9.131.715,18.259,1.072,27.389.383,9.795.726,19.592,1.179,29.384.034.723.809,1.41,1.24,2.115.232-.738.748-1.515.655-2.209-1.071-7.938,2.534-14.987,4.165-22.407a1.829,1.829,0,0,1,.26-.505q3.651-6.165,7.307-12.326c.75-1.262,1.523-2.51,2.286-3.765a1.232,1.232,0,0,1,.2,1.207c-2.147,5.7-4.753,11.265-6.343,17.111-1.811,6.662-2.764,13.562-4,20.375-.371,2.048.7,2.962,2.792,2.881.4-.016.81-.022,1.216-.022C209.77,198.581,210.357,198.594,210.944,198.606Zm-57.07-18.843c.313-1.172.608-2.043.777-2.938a70.48,70.48,0,0,0-2.626-35.723c-1.848-5.614-5.878-8.023-11.209-9.648C140.4,135.878,150.7,173.832,153.874,179.764Zm2.817-7.094Zm-.98-23.1q.271,6.4.543,12.8V149.538ZM257.781,133.5c4.471,5.289,9.572,10.114,12.31,16.687.032.077.324.046,1.291.154.935-9.934,1.879-19.844,2.775-29.76a4.53,4.53,0,0,0-.354-2.233c-3.269-6.984-7.106-13.546-14.157-17.446q-7.125-3.941-14.368-7.666a3.439,3.439,0,0,0-2.533.023c-13.145,5.317-23.711,14.408-33.991,23.784-3.345,3.051-5.792,7.086-8.9,10.984,6.17.4,11.24-.546,16.041-3.4,5.376-3.2,11.192-4.209,17.27-1.889,4.092,1.561,8.193,3.1,12.269,4.7,1.6.629,3.142,1.4,4.71,2.109-2.006-3.627-2.224-8.148-6.315-10.08-.092-5.422-7.277-2.747-7.664-7.1.326-1.245.65-2.489,1.126-4.312l8.834,9.753.215.178c2.047,3.714,3.877,7.575,6.236,11.08,1.169,1.739,3.311,2.822,5.014,4.2a42.426,42.426,0,0,0-.659-5.361,4,4,0,0,0-1.748-2.28,43.116,43.116,0,0,0-5.171-2.1c.431-3.848.683-7.753,1.421-11.563.2-1.022,1.882-1.756,2.882-2.623l1.034.857-3.623,8.164,4.68-2.183,1.638,4.33c1.236,0,3.888-.456,4.111.087.615,1.5.213,3.408.213,5.157l.977-1.1,4.27,2.55-1.988,1.991a1.455,1.455,0,0,0,.545-.009c1.267-.578,2.628-2.552,3.815-.648.48.769-.59,2.819-1.4,3.981-.7,1.012-2.023,1.6-3.213,2.474-.629-.868-1.079-1.489-1.921-2.653v3.568c-3.243-2.646-2.217-5.83-2.3-8.891-2.486.573-2.957,2.013-2.513,4.2.147.729,1.433,2.315-.864,2.276a1.92,1.92,0,0,0-.188-.227A1.91,1.91,0,0,1,257.781,133.5Zm50.211-4.35c.034.178.069.357.1.535l10.012-2.947c-.062-.2-.126-.4-.188-.6ZM274.939,106.08c-2.914-9.284-3.779-18.471,1.265-27.375C269.7,87.54,271.4,96.767,274.939,106.08Zm-.252-7.1.85.011q1.424-10.635,2.85-21.269l-.631-.093Q276.223,88.306,274.688,98.982Zm-64.5-27.211.431.693q4.774-3,9.549-5.99l-.344-.553Zm69.387-1.82,1.1.248,1.669-8.18-.675-.142ZM201.546,58.111l.676-.529c-5.115-6.224-8.513-13.754-14.987-18.944Zm-8.778,311.463,4.346-5.27.774.645-4.285,5.315Zm14.888-2.075q-.183-1.374-.366-2.747l.559-.1c.105.415.211.831.45,1.773,1.334-3.955,2.528-7.493,3.721-11.032l.866.321c-1.039,4.1-1.56,8.387-4.219,11.926Zm-54.85-14.77c.086-.09.169-.185.246-.284l12.774,1.669q-.055.4-.107.8c-1.03-.051-2.068-.032-3.107-.013-.537.009-1.074.019-1.61.019C158.181,354.918,155.391,354.653,152.807,352.729Zm-2.75.194a44.935,44.935,0,0,1-16.782-8.847c-.173-.142-.212-.446-.152-.309l19.929,8.677a3.654,3.654,0,0,1-.247.284c-.7.06-1.434.273-2.114.273A2.366,2.366,0,0,1,150.057,352.923ZM219,327.812l.661.6c-3.449,4.066-6.369,8.612-11.3,11.325Zm39.432,7.146,8.463-17.394.643-.038c.128.66.582,1.5.335,1.954-2.88,5.318-5.865,10.578-8.822,15.854ZM156.205,333.93c.793-1.874,1.3-3.937,2.425-5.588,5.606-8.261,13.558-12.176,23.491-12.512a45.652,45.652,0,0,1,16.821,2.689c6.276,2.192,12.51,4.7,19.572,4.239-2.176,2.677-8.914,3.893-12.477,3.395-7.034-.984-14.137-1.588-21.232-1.955-3.075-.159-6.194.729-9.306.986a11.833,11.833,0,0,1-3.014-.532q4.258-.492,8.519-.982-.105-.612-.211-1.224L172.45,324.6l-7.184,2.975,1.489-3.331-.7-.459a31.164,31.164,0,0,0-9,10.522Zm45.408-11.893c-10.264-3.878-20.568-5.687-31.012-.68a37.31,37.31,0,0,1,13.287-2.364A61.037,61.037,0,0,1,201.613,322.038Zm19.917,10.535,4.569-10.839c5.987-12.281,18.751-21.8,33.67-17.393a55.429,55.429,0,0,1,6.218,2.086c1.733.746,2.824.71,4.064-1,4.042-5.567,9.861-9.111,15.347-13.029,1.192-.851,2.086-2.109,3.2-3.083a17.775,17.775,0,0,1,2.247-1.452l.117.123c-1.684,2.017-3.281,4.114-5.07,6.032-3.7,3.97-7.529,7.821-11.246,11.775a23.777,23.777,0,0,0-2.058,3.059l13.839,7.616c-5.284,0-9.744.126-14.195-.032-5.322-.19-10.638-.592-15.952-.961-4.361-.3-8.786-.329-13.057-1.141a14.221,14.221,0,0,0-10.575,1.991l-.489-.711,2.294-1.015-.748-.684c-3.5,1.99-5.345,5.324-6.77,9l-4.782,9.9Zm26.115-21.2,26.071,3.5c-3.032-1.837-16.8-3.849-23.113-3.85A7.833,7.833,0,0,0,247.645,311.372Zm-1.842-3.747c-3.782.741-8.183.347-11.013,4.546,9.9-5,19.731-5.117,29.815-1.611-4.775-1.723-9.608-3.335-14.616-3.335A21.65,21.65,0,0,0,245.8,307.625Zm5.383-3.595c4.468,1.069,9.566,2.288,14.665,3.506-4.386-1.949-8.835-3.575-13.15-3.575Q251.94,303.961,251.186,304.03Zm-75.659-4.793c-7.362,9.269-15.254,18.217-18.872,29.857C159.432,316.968,166.845,307.715,175.526,299.237Zm-47.432,13.077q.263-.424.525-.848a8.57,8.57,0,0,1,2.66,1.281c4.577,4.8,9.055,9.7,13.564,14.566l-.323.444Zm159.887,12.459c2.8-2.2,5.876-4.071,8.569-6.39,2.41-2.077,4.432-4.6,6.666-6.889a12.41,12.41,0,0,1,1.762-1.279l.462,1.2q-7.255,6.618-14.519,13.23a9.9,9.9,0,0,1-3.882,2.307C287.341,326.211,287.434,325.2,287.981,324.772ZM102.793,311.265c-2.279-3.282-4.614-6.538-6.66-9.963a54.943,54.943,0,0,1-2.913-6.655q-3.86-5.966-7.72-11.927l1.169-.7,6.657,10.9A66.27,66.27,0,0,1,90,284.846c-.964-3.524-1.382-7.2-2.036-10.807l.845-.124c2.632,7.624,4.765,15.47,8.036,22.809,3.292,7.385,7.717,14.264,11.165,21.7C106.266,316.042,104.477,313.689,102.793,311.265Zm44.352-17.728c.445.3.989.52.975.685-.6,6.533-1.246,13.061-2.157,19.579C145.149,307.071,145.022,300.373,147.146,293.538Zm165.6,14.035c3.3-3.972,6.867-7.73,10.016-11.813,1.777-2.3,2.876-5.12,4.395-7.637,2.956-4.906,6-9.758,8.991-14.645.975-1.6,1.881-3.235,2.819-4.855l.624.439c-7.978,16.421-17.1,32.058-31.1,44.34C309.9,311.455,311.207,309.421,312.742,307.573Zm-7.764,2.641c1.887-2.117,3.813-4.2,5.654-6.356,4.078-4.775,8.2-9.514,12.135-14.407,2.288-2.85,4.239-5.969,6.912-8.611-2.035,3.453-3.721,7.182-6.18,10.3-5.042,6.4-10.483,12.481-15.808,18.653a11.806,11.806,0,0,1-2.251,1.622ZM64.256,299.559c-2.287-2.738-4.563-5.487-6.876-8.27,5.312,1.486,10.244,3.079,15.282,4.2,3.7.826,7.575.853,11.308,1.573,4.344.836,8.359,2.493,11,6.623a22.145,22.145,0,0,0-3.754-1.278c-4.313-.676-8.708-.93-12.965-1.843-5.252-1.128-10.4-2.755-15.382-4.11a21.565,21.565,0,0,0,2.02,1.429c5.322,3.057,11.138,3.978,17.192,4.336,3.98.234,7.913,1.262,11.867,1.934.027.379.055.758.082,1.137a7.519,7.519,0,0,1-2.213.866c-1.145.058-2.3.04-3.457.022a29.164,29.164,0,0,0-5.889.3,21.2,21.2,0,0,1-3.944.386C72.8,306.868,68.17,304.246,64.256,299.559Zm221.573-3.041c.246,2.82-4.362,7.879-8.4,9.277Zm-114.8-16.007c-3.382,8.622-5.715,17.837-13.124,24.029C162.242,296.6,166.636,288.556,171.029,280.511Zm58.692,23.7c1.012-2.508,2.193-4.964,2.971-7.543.432-1.431.749-3.34.149-4.556-1.863-3.781-4.4-7.229-6.282-11-2.211-4.427-4.093-9.025-5.975-13.609-3.544-8.632-6.993-17.3-10.465-25.966-1.133-2.826-2.212-5.673-3.315-8.511q2.558,7.54,5.115,15.079c.229.676.427,1.36.789,2.518-4.954-4.748-12.959-29.827-10.715-37.6a53.085,53.085,0,0,0,4.724,19.871l.043.065-.043-.065q-1.531-10.587-3.047-21.175a16.1,16.1,0,0,1-.014-2.223l1.047-.12c.3,1.838.762,3.666.879,5.516.809,12.762,4.839,24.634,10.013,36.168,5.891,13.13,11.93,26.193,17.891,39.292.422.927.739,1.9,1.19,3.075,1.551-2.448,3.011-4.75,4.469-7.053l.485.256-9.343,17.813Zm-74.007-.1c-2.446-9.281-9.156-14.237-17.613-17.082-8.585-2.887-16.891-2.308-24.343,3.669l-.424-.655a19.415,19.415,0,0,1,2.772-2.331,43.9,43.9,0,0,1,22.5-5.5,13.24,13.24,0,0,1,9.723,4.184,9.083,9.083,0,0,0,2.312,1.825c-3.15-4.318-7.245-6.954-12.77-7.119a44.419,44.419,0,0,0-17.79,3.518,4.386,4.386,0,0,1-1.674.176c-.27,0-.541-.01-.8.006.465-.76.758-1.942,1.423-2.217,8.676-3.584,17.787-4.73,26.369-.809,7.144,3.264,11.381,9.688,12.152,17.808.141,1.48-.641,3.048-1,4.575Zm101.809-19.235.751.147c-.825,5.395-1.614,10.8-2.54,16.172-.085.49-1.06.826-1.984,1.5C255.129,296.183,256.327,290.529,257.524,284.876Zm-64.361-1.435q-.065-.046-.127-.095.062.049.127.095c-.082.446-.166.893-.263,1.416l3.244.294-.012.6H189.7c-.074-.062-.148-.123-.221-.185l3.436-2.319h0c8.491-4.911,16.417-2.425,23.888,2.249,5.612,3.511,9.335,8.9,12.377,14.71a5.882,5.882,0,0,1,.349,1.678C219.259,291.963,208.251,283.735,193.163,283.441Zm-110.827,2.5.768-.622,11.263,12.641-.843.744Zm76.969,9.023,3.2-7.038-.289-.149q-.992,1.368-1.983,2.737c.908-7.226,4.661-12.207,11.232-15l-11.755,19.647Zm149.622-12.85a13.9,13.9,0,0,1,1.7-2.264c2.142-2.283,4.243-4.623,6.582-6.691.526-.464,2.011-.064,2.933.269a2.271,2.271,0,0,1,.131,2.006c-5,5.308-10.08,10.537-15.18,15.746a13.969,13.969,0,0,1-2.494,1.473C305.007,288.634,306.947,285.364,308.927,282.119Zm-125.714,7.9,6.267-4.45.221.185c-.678,3.463-4.179,3.032-6.01,4.9C183.531,290.443,183.371,290.23,183.213,290.017ZM68.189,274.671c4.982,1.426,9.112,3.354,12.045,7.306C75.265,281.4,69.615,281.883,68.189,274.671Zm3.381-.677,6.795-2.505c-.11-.339-.335-1.018-.562-1.7l1.036-.711q2.909,4.131,5.818,8.263l-1.029.18c-.419.8-.836,1.61-1.334,2.566C79.053,278.248,75.635,276.3,71.57,273.994Zm95.277-.172,8.854-.957c.033.317.065.633.1.949l-8.852,1.006Zm94.354-4.655c1.989-2.948,3.993-5.888,5.958-8.852a9.794,9.794,0,0,0,.986-1.981c.864-2.322.845-2.329,4.609-2.576l-10.734,14Zm-22.948-24.148,3.779,1.98c-2.919-4.949-5.581-9.464-8.344-14.148-1.36,2.332-1.285,2.61-.025,4.593,1.572,2.473,3.034,5.017,4.544,7.53-2.119-2.769-4.66-5.315-6.269-8.354a46.841,46.841,0,0,1-5.75-22.481,19.478,19.478,0,0,1,.293-2.266c5.076,3.979,24.425,42.121,23.815,47.288C248.279,252.7,242.21,249.785,238.253,245.019Zm3.984-.716q1.526,2.07,3.051,4.138l.692-.539q-1.351-2.156-2.7-4.312Zm-124.083-4.046,1.1.2c-.678,5.686.307,11.806-5.317,16.2Q116.048,248.462,118.154,240.257Zm132.422,9.349h0c-.149.619-.3,1.24-.388,1.61-.626-4.341-.993-8.934-2-13.381-1.508-6.654-4.071-12.845-9.305-17.642-3.5-3.212-6.779-6.674-10.157-10.024,2.339,2.7,4.451,5.644,7.061,8.048a38.185,38.185,0,0,1,12.256,24.423,17.747,17.747,0,0,1,.132,4.508q-10.617-18.616-21.288-37.323h1.558a.975.975,0,0,0,.093.154.941.941,0,0,1-.092-.154c.527.038,1.083.024,1.638.01a6.736,6.736,0,0,1,3.319.439c9.3,5.072,16.816,11.855,19.758,22.511a19.1,19.1,0,0,1-.376,11.674c-.117-6.185.112-12.41-4.813-18.145,2.786,7.373,5,14.1,3.5,21.371.23-.266.461-.529.691-.794l.522.173q-.665,3.819-1.332,7.638l-.437.02Q250.748,252.164,250.576,249.605ZM43.025,239.269a7.907,7.907,0,0,0-.655-1.847C39.22,232.7,36.028,228,32.837,223.3a15.455,15.455,0,0,0-1.181-1.271c1.288,3.118,2.331,5.637,3.372,8.157-2.118-3.772-4.235-7.546-6.533-11.638,12.037-.22,27.58,12.554,29.787,23.933-1.809-.262-2.691-1-3.684-2.778-4.478-8.016-10.708-14.394-19.244-18.263,10.134,7.246,17.037,17.022,22.2,28.3C52.436,246.569,46.92,244.061,43.025,239.269Zm14.253-47.182L67.686,215.86l-.833.356C63.794,208.085,58.274,201.01,57.277,192.087Zm14.971-13.82c.241,10.481,3.964,20.082,7.581,30.372-1.08-.937-1.68-1.457-2.258-1.956.381,1.8.776,3.677,1.171,5.551l-1.191.314q-2.98-10.786-5.96-21.573l-.42.045q1.819,9.008,3.636,18.013l-.38.172c-.533-1.4-1.132-2.774-1.581-4.2a17.883,17.883,0,0,0-1.775-4.582q1.053,6.869,2.108,13.736A49.4,49.4,0,0,1,72.249,178.267Zm-29.6,2.131,1.168,5.762-.628.358c-1.588-1.741-3.671-2.83-4.467-5.547-.786-2.676-2.432-5.089-3.582-7.671-1.337-3-2.544-6.069-3.808-9.107l.795-.4,2.846,3.049a17.1,17.1,0,0,0-1.551-3.265,21.9,21.9,0,0,0-2.878-2.712l.669-1.068c1.261.573,2.773.872,3.742,1.762A76.232,76.232,0,0,1,50.791,182.74c2.707,5.192,4.906,10.65,7.332,15.989l-.921.551Q49.923,189.838,42.647,180.4Zm-7.453-13.08c1.654,3.479,3.256,6.986,5,10.421a11.824,11.824,0,0,0,2.036,2.279c-2-4.112-3.991-8.23-6.032-12.323-.116-.234-.66-.255-1-.376l-.03-.058Zm-.03-.057h0Zm136.8,31.233V178.139h.306v20.353ZM57.45,184.007c.671-9.083,6.395-15.177,12.7-20.855,1.433-1.29,2.475-.588,2.865,1.071a5.456,5.456,0,0,1,0,2.508c-1.62,6.324-6.271,10.337-10.753,14.47l-.736-.652,3.222-3.7c-2.932,1.036-5.275,4.012-5.444,6.41-.173,2.438-.463,4.868-.7,7.3l-.855.05A53.044,53.044,0,0,1,57.45,184.007Zm-3.824-6.97.866-.147L56.2,187.669l-.665.116Q54.582,182.411,53.626,177.038ZM87,151.355l-.034-.01.032-.116q-.016-.938-.008-1.881l.195,1.17c.829-3.231,1.42-6.565,2.743-9.581,1.473-3.361,3.786-6.354,5.733-9.508l-.645-.388c-2.772,4.774-5.543,9.549-8.714,15.009.54-3.132.488-5.867,1.5-8.119a91.487,91.487,0,0,1,7.393-13.74c4.052-5.974,8.67-11.566,13.12-17.264a9.858,9.858,0,0,1,2.4-1.666c.35.808,1.047,1.639,1,2.422-.637,10.064-.569,20.365-5.757,29.441-3.525,6.17-8.062,11.759-11.636,17.9-2.357,4.053-4.915,8.345-3.641,13.508.661,2.682,1.387,5.349,1.966,8.049a13.869,13.869,0,0,1,.032,2.853A86.834,86.834,0,0,1,87,151.355Zm1.31,3.751,11.662-19.953C95.381,141.739,89.5,147.592,88.312,155.106Zm11.937-29.552.558.4,6.81-9.117-.549-.4Zm-50.024,48.1a27.665,27.665,0,0,1-4.9-5.8c-1.67-3.047,1.759-7.137,5.48-6.881,3.018.207,5.422,2.336,6.293,5.74.612,2.394.725,4.718-1.8,6.174-1.764-3.555-3.394-6.843-5.024-10.13l-.827.394c1.1,2.865,2.252,5.71,3.263,8.606a7.879,7.879,0,0,1,.056,2.415C51.9,174.017,50.729,174.164,50.224,173.656Zm8.39-23.08c7.889,1.115,15.552,2.831,21.9,8.233-4.872-.7-9.738-1.457-14.62-2.083-1.776-.228-3.722-.61-5.364-.136-6.521,1.883-11.968-.856-17.355-3.723-2.9-1.546-5.556-3.565-8.684-5.608,4.608-.262,8.818-.542,13.033-.732,5.785-.262,11.591-.836,17.357-.574,6.029.274,11.547,2.343,15.377,7.492-.9-.517-1.814-1-2.685-1.554-5.737-3.655-11.945-5.5-17.2-5.31,3.342,1,8.129,2.142,12.684,3.893,2.768,1.064,5.178,3.067,7.749,4.647l4.235,4.418C77.038,154.009,68.537,150.161,58.614,150.576Zm267.034-13.084c-2.635-.514-5.606.628-8.414,1.066-5.173.808-10.37,1.506-15.494,2.555-2.332.477-4.515,1.68-6.683,2.521,5.46-11.138,24.117-17.31,41.2-12.16-1.294-.427-2.57-.937-3.89-1.261a26.621,26.621,0,0,0-4.208-.713c-1.5-.12-3.017-.027-4.527-.027-.033-.308-.067-.617-.1-.925,2.956-.3,5.949-1.032,8.865-.8,7.978.634,13.742,5.184,18.115,11.544,1.678,2.439,1.471,5.366.62,9.061C344.181,139.82,334.614,139.242,325.648,137.492Zm1.468-3.314c7.452,1.287,14.827,2.787,21.008,7.607-5.309-5.421-11.761-7.662-19.02-7.662Q328.119,134.124,327.115,134.178ZM84.773,145.6q.128-7.419.449-14.835c.063-1.494.177-1.489-.963-2q.692-7.12,1.386-14.239l-.928-.057-.482,14.314v13.9l-.674.181a9.549,9.549,0,0,1-.494-1.786c-.394-4.931-.966-9.861-1.055-14.8-.144-7.992.981-15.754,5.116-22.848,3.31-5.677,6.382-11.492,9.7-17.162,1.76-3,3.824-5.829,5.324-9.073-2.272,3.077-4.88,5.963-6.748,9.267-3.888,6.882-7.531,13.914-11,21.02-2.9,5.95-3.241,12.436-3.072,18.951a18.234,18.234,0,0,1-.61,5.949c-.289-1.431-.664-2.852-.854-4.3-.9-6.832-1.249-13.706.52-20.417a36.572,36.572,0,0,1,3.869-8.515c2.733-4.8,5.832-9.388,8.582-14.178a35.8,35.8,0,0,1,9.99-11.228c2.155-1.578,3.446-1.163,3.614,1.5.857,13.564.363,26.747-10.107,37.335-9.175,9.279-11.9,20.712-10.4,33.392a9.145,9.145,0,0,1,.031,1.428c-.01.273-.1.543-.6.93A11.946,11.946,0,0,1,84.773,145.6ZM62.529,133.339c-4.87-4.8-11.218-6.258-17.633-7.323-4.237-.7-7.41-2.985-10.368-5.792,19.689-1.966,32.792,9.246,45.416,22.743C73.223,140.484,67.279,138.017,62.529,133.339Zm84.445-32.228c5.562-6.88,16.673-9.356,22.1-7.312l-8.712,5.8c-5.81,4.562-7.285,11.758-10.775,17.785a11.713,11.713,0,0,0,3.441-3.609c2.557-4.659,4.934-9.417,7.38-14.137,1.562-.9,3.072-1.91,4.7-2.667a7.012,7.012,0,0,1,3.512-.457c-9.059,8.688-14.178,20.555-24.165,28.277C141.442,120.1,143.082,105.925,146.974,101.112ZM248.05,118.819a19.742,19.742,0,0,0-.064-4.213,23.506,23.506,0,0,0-1.745-4.133l-.929.315c.36,1.654.772,3.3,1.058,4.966a11.962,11.962,0,0,1-.029,2.239l-.215-.178c-1.546-2.585-3.163-5.131-4.6-7.776a13.531,13.531,0,0,1-.837-3.166c1.054.366,2.118.707,3.156,1.114a3.908,3.908,0,0,1,.862.638,3.076,3.076,0,0,0,.6-.2c1.169-.716,2.33-1.446,3.493-2.172.426,1.531,1.188,3.058,1.2,4.593.027,2.659-.407,5.324-.647,7.985ZM282.7,73.535c.248-1.244,2.23-2.554,3.69-3.041,1.717-.573,3.694,1.713,3.715,3.76.02,1.967-2.211,4.639-3.878,4.643h0C284.44,78.9,282.182,76.12,282.7,73.535Zm-110.626-3.89,1.876,5.259C171.163,73.9,170.706,72.655,172.069,69.645ZM140.944,50.81c-.294-.464.272-1.473.441-2.231.665.174,1.541.138,1.957.556a8.062,8.062,0,0,1,2.435,8.381C143.906,54.972,142.306,52.966,140.944,50.81Zm5.2-2.238c.049-.862.857-1.68,1.317-2.518.69.549,1.628.96,2.023,1.673a63.43,63.43,0,0,1,2.9,6.147,13.029,13.029,0,0,1,.439,2.747C148.865,55.123,145.973,51.523,146.144,48.572ZM151.91,50.1a54.35,54.35,0,0,1-1.167-6.353,3.388,3.388,0,0,1,1.23-2.76,3.3,3.3,0,0,1,3.036.429,3.268,3.268,0,0,1,.583,2.94,54.419,54.419,0,0,1-3.072,5.913ZM200.822,29.1c.385-.83,1.355-1.879,2.1-1.915a3.5,3.5,0,0,1,2.357,1.651c1.707,2.633,1.1,6.624-1.44,10.247C201.091,37.118,199.5,31.948,200.822,29.1Z" transform="translate(6034.827 3562.846)" stroke="rgba(0,0,0,0)" stroke-miterlimit="10" stroke-width="1" fill="url(#linear-gradient)"/>
    </g>
  </g>
</svg>
